<?xml version="1.0" encoding="UTF-8"?>
<svg xmlns="http://www.w3.org/2000/svg" viewBox="0 0 334.52 223.01">
  <defs>
    <style>
      .cls-1 {
        fill: #fafafa;
      }
    </style>
  </defs>
  <g id="linecube1">
    <g>
      <polygon class="cls-1" points="222.75 105.54 257.59 96.12 257.59 154.52 222.75 164.93 222.75 105.54"/>
      <path d="M255.59,98.74v54.3l-30.83,9.21v-55.17l30.83-8.34M259.59,93.51l-38.83,10.5v63.6l38.83-11.6v-62.5h0Z"/>
    </g>
    <g>
      <polygon class="cls-1" points="175.75 154.85 175.75 100.06 218.25 106.18 218.25 164.49 175.75 154.85"/>
      <path d="M178.25,102.95l37.5,5.39v53.01l-37.5-8.5v-49.9M173.25,97.18v59.67l47.5,10.77v-63.6l-47.5-6.83h0Z"/>
    </g>
    <path d="M191.88,109.39c3.13.31,4.69.46,7.82.77,3.33,14.61,6.64,29.23,9.91,43.85-2.77-.43-4.16-.64-6.93-1.07-.71-3.32-1.07-4.97-1.78-8.27-4.09-.59-6.13-.88-10.22-1.47-.73,3.05-1.09,4.57-1.82,7.61-2.76-.43-4.13-.64-6.89-1.07,3.35-13.44,6.64-26.88,9.91-40.34ZM199.08,136.18c-1.3-6.13-1.95-9.18-3.25-15.26-1.33,5.78-2,8.65-3.33,14.38,2.63.35,3.95.53,6.58.88Z"/>
    <g>
      <polygon class="cls-1" points="180.55 96.71 210.86 88.31 252.07 93.99 220.66 102.48 180.55 96.71"/>
      <path d="M210.96,89.84l33.6,4.63-23.99,6.49-32.72-4.71,23.11-6.41M210.75,86.78l-37.5,10.4,47.5,6.83,38.83-10.5-48.83-6.73h0Z"/>
    </g>
  </g>
  <g id="linecube2">
    <g>
      <polygon class="cls-1" points="81.77 159.97 81.77 99.85 138.1 103.38 138.1 164.02 81.77 159.97"/>
      <path d="M83.77,101.98l52.33,3.28v56.61l-52.33-3.76v-56.13M79.77,97.72v64.11l60.33,4.33v-64.67l-60.33-3.78h0Z"/>
    </g>
    <path d="M95.35,139.24c3.2.01,4.8.02,7.99.03.51,5.09,2.48,8.04,6.34,8.32,3.12.22,4.87-1.24,4.87-4.39,0-2.89-1.02-4.62-6.57-6.69-8.62-3.22-12.04-6.78-12.04-15.03s4.73-13.98,12.68-13.48c8.45.53,12.82,7.52,13.51,16.97-3.16,0-4.74,0-7.9,0-.32-4.56-2.3-7.58-5.7-7.79-2.85-.18-4.55,1.61-4.55,4.43,0,3.21,1.44,4.71,6.2,6.32,9.32,3.14,12.41,8.07,12.41,15.31,0,8.95-4.92,14.13-13,13.55-8.73-.63-13.78-7.41-14.24-17.53Z"/>
    <g>
      <polygon class="cls-1" points="85.33 96.57 101.53 88.3 153.74 91.18 139.71 99.97 85.33 96.57"/>
      <path d="M101.85,89.82l47.09,2.6-9.62,6.03-48.43-3.03,10.96-5.59M101.21,86.78l-21.44,10.94,60.33,3.78,18.44-11.56-57.33-3.16h0Z"/>
    </g>
    <g>
      <polygon class="cls-1" points="142.1 102.6 156.58 93.53 157.2 151.37 142.1 162.26 142.1 102.6"/>
      <path d="M154.62,97.12l.57,53.23-11.09,7.99v-54.64l10.52-6.59M158.54,89.94l-18.44,11.56v64.67l19.11-13.78-.67-62.44h0Z"/>
    </g>
  </g>
  <g id="linecube3">
    <g>
      <polygon class="cls-1" points="157.78 34.52 207.61 31.12 207.61 91.38 157.78 97.39 157.78 34.52"/>
      <path d="M205.61,33.27v56.34l-45.83,5.53v-58.75l45.83-3.12M209.61,28.98l-53.83,3.67v67l53.83-6.5V28.98h0Z"/>
    </g>
    <path d="M168.64,43.79c6.38-.28,9.57-.42,15.95-.7,7.75-.34,12.76,4.35,12.76,11.92,0,5.15-2.4,9.08-6.23,10.75,3.58.37,5.4,2.68,5.69,6.87.33,4.76.5,7.14.83,11.89-3.49.27-5.24.41-8.73.68-.22-4.11-.32-6.16-.54-10.27-.2-3.15-1.32-4.56-4.66-4.34-2.61.17-3.92.26-6.53.43v15.1c-3.42.27-5.12.4-8.54.67v-42.99ZM183.26,62.12c3.43-.2,5.35-2.22,5.35-5.56s-1.91-5.09-5.45-4.91c-2.39.12-3.59.18-5.99.3v10.53c2.43-.14,3.65-.22,6.08-.36Z"/>
    <g>
      <polygon class="cls-1" points="124.78 88.49 124.78 29.05 153.78 34.32 153.78 96.98 124.78 88.49"/>
      <path d="M126.78,31.44l25,4.55v58.32l-25-7.32V31.44M122.78,26.65v63.33l33,9.67V32.65l-33-6h0Z"/>
    </g>
    <g>
      <polygon class="cls-1" points="130.02 26.95 174.06 22.66 202.25 28.48 155.84 31.64 130.02 26.95"/>
      <path d="M174.01,23.67l20.87,4.31-38.99,2.66-18.64-3.39,36.75-3.58M174.11,21.65l-51.33,5,33,6,53.83-3.67-35.5-7.33h0Z"/>
    </g>
  </g>
</svg>